:SAMPLES-PER-SECOND 30
:FULLY-SPECIFIED
:DEGREES
514
root  -2.47462 40.9134 1.30367 176.532 -78.957 -175.746
RightUpLeg  0.333548 -0.242999 -1.42379
RightLeg  0.116161 -10.2845 -0.416094
RightFoot  0.397181 -0.429384 4.20071
RightToes  -3.13006e-008 1.75238e-005 3.56266e-009
Spine  -4.14614 -7.64918 -8.79813
Spine1  15.1494 -7.29443 -1.1875
HEad  -0.0115476 -50.6216 6.27171
LeftShoulder1  3.21886 -6.49874 -26.0561
LeftArm  -27.3954 -14.1178 -51.701
LeftForeArm  133.706 -77.5797 -128.167
LeftHand  -0.302639 -3.09692 4.37766
RightShoulder  1.00944 0.779812 17.0088
RightArm  -74.8837 2.2017 11.5557
RightForeArm  26.6435 70.5319 31.1153
RightHand  -0.926423 4.46137 -11.166
LeftUpLeg  2.83204 1.66989 1.95336
LeftLeg  -1.02728 23.4694 -1.0462
LeftFoot  -1.49486 0.269013 -3.11474
LeftToes  4.76866e-008 1.46233e-008 1.30548e-009
515
root  -2.45776 40.9016 1.34304 176.24 -76.7507 -175.717
RightUpLeg  0.213008 0.162663 -1.17586
RightLeg  0.306532 -8.50989 -0.668199
RightFoot  0.534505 -0.428887 4.15579
RightToes  -3.13006e-008 1.75238e-005 3.56266e-009
Spine  -3.87127 -7.72212 -9.46748
Spine1  15.2303 -7.40389 -1.08905
HEad  1.76913 -49.0162 4.48288
LeftShoulder1  3.12899 -6.37177 -25.5429
LeftArm  -22.2306 -14.8689 -54.891
LeftForeArm  132.648 -78.4357 -123.693
LeftHand  -0.335176 -2.83215 4.95397
RightShoulder  1.02985 0.879593 16.9242
RightArm  -72.1251 -0.601946 11.0932
RightForeArm  30.961 71.9962 33.9174
RightHand  -0.800388 4.49295 -9.67797
LeftUpLeg  3.28886 1.95612 2.06772
LeftLeg  -0.858865 25.3558 -1.0669
LeftFoot  -1.7417 0.279795 -3.28907
LeftToes  4.76866e-008 1.46233e-008 1.30548e-009
516
root  -2.46042 40.8945 1.40443 175.579 -74.5486 -175.548
RightUpLeg  0.453313 0.474873 -0.942914
RightLeg  0.298168 -6.65858 -0.823005
RightFoot  0.775927 -0.440254 4.19506
RightToes  -3.13006e-008 1.75238e-005 3.56266e-009
Spine  -3.10257 -7.97756 -10.4431
Spine1  14.5989 -7.94559 -0.292079
HEad  3.78304 -46.0168 2.08196
LeftShoulder1  3.29994 -6.84184 -25.7582
LeftArm  -15.101 -16.1191 -57.8954
LeftForeArm  127.117 -79.1846 -117.367
LeftHand  -0.288695 -2.27678 4.57348
RightShoulder  1.04681 1.00624 16.6114
RightArm  -67.7813 -1.69871 10.5028
RightForeArm  38.6212 74.2508 39.5762
RightHand  -0.582344 3.85573 -7.51801
LeftUpLeg  4.10427 2.18384 2.12263
LeftLeg  -0.881094 27.31 -1.05867
LeftFoot  -1.8915 0.2797 -3.29982
LeftToes  4.76866e-008 1.46233e-008 1.30548e-009
517
root  -2.45423 40.8721 1.48273 175.283 -71.8686 -175.616
RightUpLeg  0.182841 1.06073 -0.614292
RightLeg  0.872403 -4.58917 -1.24332
RightFoot  0.816365 -0.455536 4.32681
RightToes  -3.13006e-008 1.75238e-005 3.56266e-009
Spine  -2.39405 -8.39414 -11.3966
Spine1  13.7581 -8.64005 0.45799
HEad  5.63447 -42.6547 -0.569862
LeftShoulder1  3.62972 -7.80707 -25.9711
LeftArm  -6.26025 -17.9272 -61.0167
LeftForeArm  112.918 -80.0442 -103.876
LeftHand  -0.312881 -2.5238 4.81106
RightShoulder  1.07421 1.20137 16.1869
RightArm  -62.4039 -0.329065 9.13516
RightForeArm  45.4269 76.3032 47.6452
RightHand  -0.162885 2.63265 -2.51761
LeftUpLeg  4.70821 2.38398 2.07866
LeftLeg  -0.677495 29.6974 -0.937912
LeftFoot  -2.17505 0.280919 -3.33768
LeftToes  4.76866e-008 1.46233e-008 1.30548e-009
518
root  -2.4825 40.8429 1.58535 175.017 -68.6039 -175.588
RightUpLeg  -0.267419 1.68739 -0.274543
RightLeg  1.48063 -2.03153 -1.5375
RightFoot  0.8824 -0.481183 4.54672
RightToes  -3.13006e-008 1.75238e-005 3.56266e-009
Spine  -2.36698 -9.18159 -12.0764
Spine1  13.7336 -9.52595 0.581927
HEad  5.71741 -37.9116 -2.06114
LeftShoulder1  3.74358 -8.28817 -25.6107
LeftArm  3.20697 -20.8515 -64.7742
LeftForeArm  82.5075 -79.8753 -78.1539
LeftHand  -0.303204 -3.52822 4.20379
RightShoulder  1.15744 1.5783 16.1165
RightArm  -57.3091 4.8895 6.52303
RightForeArm  50.4111 77.1165 51.6709
RightHand  0.358094 2.2219 5.36539
LeftUpLeg  5.29577 2.60665 2.02436
LeftLeg  -0.476234 32.6771 -0.773034
LeftFoot  -2.52793 0.306679 -3.78114
LeftToes  4.76866e-008 1.46233e-008 1.30548e-009
519
root  -2.55811 40.81 1.69393 174.269 -65.1131 -175.263
RightUpLeg  -0.341553 2.37147 0.204887
RightLeg  1.88964 0.643458 -1.72082
RightFoot  0.969316 -0.500243 4.69639
RightToes  -3.13006e-008 1.75238e-005 3.56266e-009
Spine  -2.22784 -10.0865 -12.4063
Spine1  13.3737 -10.5921 0.801229
HEad  5.66436 -32.085 -4.16493
LeftShoulder1  4.03589 -9.13537 -25.7908
LeftArm  11.8223 -24.2564 -67.4961
LeftForeArm  43.2092 -76.1923 -48.3217
LeftHand  -0.145107 -3.98822 2.04677
RightShoulder  1.24526 2.13739 15.3788
RightArm  -53.0263 12.2962 3.29364
RightForeArm  52.2102 77.4983 54.325
RightHand  0.858755 2.12475 12.9184
LeftUpLeg  6.12482 2.98994 2.09017
LeftLeg  -0.0886184 35.6783 -0.507056
LeftFoot  -2.95515 0.30795 -3.96012
LeftToes  4.76866e-008 1.46233e-008 1.30548e-009
520
root  -2.62606 40.7668 1.8274 174.033 -61.1326 -175.367
RightUpLeg  -0.760688 3.14404 0.569128
RightLeg  2.57496 3.74966 -1.90284
RightFoot  0.961441 -0.530026 4.975
RightToes  -3.13006e-008 1.75238e-005 3.56266e-009
Spine  -2.06944 -10.7443 -12.1017
Spine1  12.4796 -11.3259 0.796864
HEad  5.4386 -26.2393 -6.59043
LeftShoulder1  4.40701 -10.1206 -26.2411
LeftArm  18.1226 -28.0739 -70.1376
LeftForeArm  16.3255 -68.1239 -28.2376
LeftHand  0.141575 -4.21638 -1.42693
RightShoulder  1.27905 2.76113 13.4899
RightArm  -51.0897 20.142 0.981782
RightForeArm  50.3954 77.4493 54.8884
RightHand  0.951942 2.38288 14.0177
LeftUpLeg  6.6419 3.34282 1.96246
LeftLeg  0.820764 39.2253 0.00499277
LeftFoot  -3.52021 0.30392 -4.13292
LeftToes  4.76866e-008 1.46233e-008 1.30548e-009
521
root  -2.71316 40.7238 1.96235 174.172 -57.267 -175.702
RightUpLeg  -1.22064 3.75769 0.741734
RightLeg  3.03848 6.93277 -1.98165
RightFoot  0.945177 -0.550016 5.16568
RightToes  -3.13006e-008 1.75238e-005 3.56266e-009
Spine  -2.74762 -11.1927 -10.9021
Spine1  12.7203 -11.4428 -0.517382
HEad  3.94408 -19.6642 -7.91337
LeftShoulder1  4.5936 -11.0069 -25.5058
LeftArm  22.4735 -31.6209 -74.682
LeftForeArm  4.74156 -56.6794 -16.9462
LeftHand  0.0749882 -3.28968 -0.774048
RightShoulder  1.16507 2.59905 12.0461
RightArm  -52.2015 27.1915 -0.964237
RightForeArm  51.5687 77.4295 54.0061
RightHand  0.714556 3.29999 9.31942
LeftUpLeg  6.98176 3.63104 1.66078
LeftLeg  1.68945 42.7288 0.467495
LeftFoot  -4.05545 0.27987 -4.01594
LeftToes  4.76866e-008 1.46233e-008 1.30548e-009
522
root  -2.80499 40.6898 2.07043 173.993 -53.8704 -175.671
RightUpLeg  -1.33082 4.29111 1.08092
RightLeg  2.95697 9.62786 -2.09668
RightFoot  1.07943 -0.583224 5.42252
RightToes  -3.13006e-008 1.75238e-005 3.56266e-009
Spine  -3.20514 -11.3557 -9.38778
Spine1  12.7738 -11.3012 -1.84648
HEad  2.08707 -13.6739 -8.95869
LeftShoulder1  4.91826 -11.9806 -25.6118
LeftArm  26.5796 -35.2922 -78.9034
LeftForeArm  -0.581961 -43.077 -10.4743
LeftHand  -0.0379042 -1.38551 0.921212
RightShoulder  0.99944 2.18762 10.2945
RightArm  -56.4748 31.9377 -2.23936
RightForeArm  50.9061 77.0388 50.7927
RightHand  0.383389 4.52082 4.20769
LeftUpLeg  7.1439 4.03469 1.62541
LeftLeg  2.97478 45.6215 1.21994
LeftFoot  -4.64166 0.271628 -4.16242
LeftToes  4.76866e-008 1.46233e-008 1.30548e-009
523
root  -2.88614 40.6758 2.16141 174.191 -51.408 -175.723
RightUpLeg  -1.56807 4.35957 1.17833
RightLeg  2.61715 11.8691 -2.17321
RightFoot  1.23365 -0.650001 5.96913
RightToes  -3.13006e-008 1.75238e-005 3.56266e-009
Spine  -3.71662 -11.626 -8.06912
Spine1  12.7792 -11.275 -3.00254
HEad  -0.166552 -8.01096 -9.58087
LeftShoulder1  5.1797 -12.7502 -25.7217
LeftArm  30.8948 -38.4432 -82.9847
LeftForeArm  -2.10965 -30.2451 -6.64503
LeftHand  -0.131921 1.47066 3.55503
RightShoulder  0.760106 1.24969 8.60808
RightArm  -61.9889 34.7541 -2.48732
RightForeArm  49.3081 76.3451 46.4434
RightHand  0.0176517 6.25289 -0.153108
LeftUpLeg  6.94837 4.3752 1.59149
LeftLeg  4.03167 47.6448 1.71728
LeftFoot  -5.14515 0.253897 -4.12037
LeftToes  4.76866e-008 1.46233e-008 1.30548e-009
524
root  -2.94545 40.6795 2.21055 174.123 -49.9373 -175.504
RightUpLeg  -1.47897 4.09659 1.28808
RightLeg  1.92268 13.4393 -2.14238
RightFoot  1.54869 -0.708643 6.36127
RightToes  -3.13006e-008 1.75238e-005 3.56266e-009
Spine  -3.87605 -12.245 -7.81873
Spine1  13.1 -11.8866 -3.10749
HEad  -2.95013 -2.115 -9.8269
LeftShoulder1  5.21776 -13.0558 -25.3419
LeftArm  30.6098 -39.5626 -85.1847
LeftForeArm  10.8013 -24.0691 -4.55562
LeftHand  -0.0477328 3.71097 1.57102
RightShoulder  0.657056 0.646453 8.42241
RightArm  -67.5184 36.0779 -3.67066
RightForeArm  48.647 75.6369 42.6216
RightHand  -0.467551 6.35568 -5.00505
LeftUpLeg  6.80822 4.7461 1.83134
LeftLeg  4.77616 48.6459 1.99042
LeftFoot  -5.50563 0.24132 -4.08535
LeftToes  4.76866e-008 1.46233e-008 1.30548e-009
525
root  -3.0062 40.6941 2.21476 174.054 -49.16 -175.278
RightUpLeg  -1.21093 3.76268 1.32156
RightLeg  1.08662 14.438 -2.07405
RightFoot  1.90286 -0.748707 6.55267
RightToes  -3.13006e-008 1.75238e-005 3.56266e-009
Spine  -3.49215 -12.8333 -8.33225
Spine1  13.0317 -12.7762 -2.1024
HEad  -5.84966 4.07122 -10.4014
LeftShoulder1  5.2322 -13.0487 -25.4457
LeftArm  30.3715 -39.3782 -84.9204
LeftForeArm  23.9981 -26.1327 -4.33711
LeftHand  0.0257 3.66593 -2.63474
RightShoulder  0.553016 -0.0953251 8.83344
RightArm  -71.269 35.5329 -4.38549
RightForeArm  49.015 75.2751 40.732
RightHand  -0.614796 5.85037 -6.6608
LeftUpLeg  6.88552 4.83864 1.94933
LeftLeg  4.71648 49.3402 1.93451
LeftFoot  -5.59221 0.231997 -3.95172
LeftToes  4.76866e-008 1.46233e-008 1.30548e-009
